<?xml version="1.0" standalone="no"?>
<!DOCTYPE svg PUBLIC "-//W3C//DTD SVG 1.1//EN" "http://www.w3.org/Graphics/SVG/1.1/DTD/svg11.dtd" >
<svg xmlns="http://www.w3.org/2000/svg" xmlns:svg="http://www.w3.org/2000/svg" xmlns:xlink="http://www.w3.org/1999/xlink" viewBox="0 0 1024 1024"><path d="M487.98 536.43Q506.44 465.16 541.26 426.32Q539.94 389.21 546.46 355.72Q546.09 352.32 548.27 344.78Q590.18 354.18 584.74 337.15Q593.66 343.43 592 321.61Q582.46 314.51 593.33 320.83Q623.49 311.97 632.55 326.09Q621.69 362.46 629.77 370.53Q632.1 357.27 607.39 372.72L610.19 413.3H756.79Q783.92 394.94 805.56 409.13Q875.41 411.65 889.93 417.86Q915.79 413.26 937.38 459.68Q930.46 437.92 924.49 457.7Q934.2 484.13 894.35 474.09Q879.52 501.03 878.45 490.63Q875.32 472.12 893.05 494.15Q861.73 468.96 847.6 495.46Q861.9 502.66 835.62 533.75Q820.01 590.5 800.67 657.7Q768.44 693.31 761 721.49Q730.54 709.16 744.99 727.3Q757.28 699.04 747.41 735.45Q744.96 735.68 761.53 743.84Q788.72 741.77 801.39 767.41Q832.14 786.57 860.67 799.95Q897.6 844.59 930.57 866.76Q906.88 870.24 923.16 894.15Q934.41 880.34 898.47 901.14Q905.64 906.83 879.69 928.86Q878.7 919.13 885.1 920.35Q853.81 919.77 817.41 903.19Q801.63 847.3 751.01 828.5L702.57 791.94L675.85 785.41Q640.74 871.79 604.54 896.16Q554.25 920.44 523.26 926.44Q530.95 910.63 523 891.95Q505.78 893.09 485.75 885.85Q503.1 866.13 495.3 869.1Q515.02 853.14 511.91 870.01Q494.07 841.26 528.32 843.52Q546.24 824.49 571.97 795.36Q600.53 771.13 618.81 755.43Q623.37 735.4 649.97 745.62Q630.38 709.22 624.53 732.29Q607.35 708.07 593.19 679.05Q593.44 669.09 593.77 623.84Q593.42 632.73 587.37 611.92Q589.52 599.34 593.52 562.5Q569.08 576.31 561.39 578.29Q587.67 571.42 561.65 552.88Q562.25 580.77 553.65 580.55Q553.75 585.7 545.16 586.1Q524.44 601.12 535.03 618.37Q512.21 620.54 527.88 657.07Q510.32 637.58 493.27 655.82Q487.46 654.41 458.86 616.54Q490.05 614.68 473.21 602.75Q462.19 577.71 509.1 529.8ZM97.56 555.19Q85.08 552.53 100.14 513.08Q121.68 499.16 181.17 467.7Q188.87 432.06 206.8 423.68Q222.33 420.79 253.04 389.27Q278.61 374.92 278.91 362.06Q304.89 332.71 313.81 360.38Q320.1 323.58 330.71 339.93Q314.89 354.81 314.6 336.49Q335.44 319.59 337.22 353.23Q342.11 359.18 344.07 366.36Q360.75 373.63 330.28 369.51Q301.02 422.54 304.48 463.56Q293.48 492.19 291.21 612.76Q301.54 639.26 316.38 665.46Q318.02 852.48 300.39 873.91Q291.23 908.99 285.68 946.68Q281.83 938.04 263.35 940.44Q282.44 940.7 253.58 938.03Q261.59 925.18 243.28 943.07Q220.82 915.08 250.03 893.9Q214.74 864.69 215.75 722.18Q247.66 658.11 215.8 595.58Q227.31 522.13 215.38 548.98Q224.99 535.91 218.5 534.4Q209.88 537.09 220.58 554.35Q187.6 546.39 173.36 560.27Q183.88 588.42 168.44 572.44Q145.74 595.32 136.7 613.78Q138.57 602.19 96.63 591.62Q81.65 577.23 103.46 576.59ZM147.8 180.72Q160.15 160.27 168.89 175.14Q150.95 140.27 172.54 141.58Q177.58 126.78 169.82 87Q166.47 92.64 190.97 85.13Q197.57 65.33 202.89 90.73Q203.93 76.92 228.01 84.81Q247.24 87.65 249.88 140.6V163.36L357.95 155.32Q428.1 159.81 459.35 161.22Q479.68 147.67 504.48 164.48Q508.28 159.8 513.18 185.72Q520.93 199.77 509.61 172.54Q535.59 216.07 509.88 230.56Q519.85 237.13 489.47 223.8Q472.11 219.46 482.97 211.64Q487.81 228.74 474.78 215.86Q437.29 229.38 457.86 224.9Q417.45 224.26 425.67 204.92Q436.49 225.25 450.19 254.21Q439.11 227.69 440.28 268.93Q476.53 299.78 475.96 309.97Q465.18 318.56 450.63 314.46Q453.42 322.96 433.45 312.61Q439.27 308.74 414.17 318.05Q414.27 326.84 408.13 308.62Q393.48 310.53 360.47 240.74L355.23 239.52H201.36L210.72 260.02Q188.1 267.82 202.28 302.96Q178.79 329.94 185.03 335.58Q154.7 332.43 171.76 311.22Q155.12 344.02 139.63 306.9Q144.55 341.57 147.07 308.8Q107.82 298.43 141.61 268.82Q106.15 268.19 127.91 179.52ZM554.36 135.98Q571.17 118.56 565.04 102.39Q597.7 81.71 581.73 94.27Q608.3 74.8 584.73 79.59Q625.46 109.31 611.3 79.71Q626.87 94.12 614.39 82.35Q627.95 79.26 639.85 125.35Q624.94 120.95 627.09 111.68Q635.7 141.25 623.87 131.42Q643.83 135.88 630.39 127.7Q654.14 165.68 669.24 140.42Q683.02 152.11 718.82 158.21Q752.06 137.9 809.84 169.34Q868.73 156.91 868.96 156.66Q920.46 168.97 914.14 157.71Q944.62 190.43 911.86 199.67Q944.56 184.53 935.04 178.88Q923.46 192.89 929.95 213.79Q907.58 233.87 882.54 242.33Q902.74 245.59 859.81 208.82Q836.68 236.86 837.74 234.73L799.72 226.11Q822.45 249.83 836.26 244.94Q817.26 237.01 813.88 250.37Q846.85 276.8 832.75 264.81Q831.11 294.64 847.1 309.13Q806.64 312.87 819.05 298.1Q802.26 319.47 793.19 313Q788.51 301.09 765.39 294.19Q790.96 277.45 768.64 279.59L736.18 238.36H635.67L616.26 241.38Q628.55 294.71 593.59 273.64Q603.93 307.8 584.96 304.86Q564.34 297.74 561.44 301.05Q550.56 307.84 537.65 261.66Q553.28 248.37 527.05 263.04Q550.98 239.55 558.66 134.71ZM393.79 505.54Q396.89 515.85 382.66 481.3Q410.69 468.84 412.42 465.88Q403.55 484.01 417.83 467.21Q409.89 466.17 417.77 485.2Q456.73 462.6 458.14 493.95Q463.49 479.18 446.06 490.49Q476.66 504.13 439.86 516.64Q477.43 519.27 462.14 569.21Q442.24 559.92 470.53 610.09Q441.86 609.41 457.86 643.46Q442.2 676.77 477.45 719.12Q478.6 750.13 443.55 744.29Q478.75 777.68 447.17 786.12Q467.41 801.37 469.24 786.84Q473.71 819.06 459.86 824.34Q425.72 816.57 434.08 815.77Q433.19 823.74 413.39 782.78Q410.32 742.79 388.38 670.67Q375.54 641.16 391.64 584.44Q396.2 548.99 384.96 532.44ZM610.76 480.44Q618.84 492.43 669.91 569.7Q670.08 643.13 672.47 662.16Q703.69 647.6 718.68 600.76Q750.67 529.6 750.59 506.99Q774.9 487.84 748.88 501.78Q728.84 502.61 701.2 469.16H655.05Q617.81 477.04 636.56 505.27Z" fill="black"></path></svg>