<?xml version="1.0" standalone="no"?>
<!DOCTYPE svg PUBLIC "-//W3C//DTD SVG 1.1//EN" "http://www.w3.org/Graphics/SVG/1.1/DTD/svg11.dtd" >
<svg xmlns="http://www.w3.org/2000/svg" xmlns:svg="http://www.w3.org/2000/svg" xmlns:xlink="http://www.w3.org/1999/xlink" viewBox="0 0 1024 1024"><path d="M491.5 544.5Q520.5 476.5 538.5 428.5Q556.5 380.5 560.5 364.5Q561.5 353.5 567.0 344.5Q572.5 335.5 578.5 330.5Q585.5 325.5 591.5 322.5Q597.5 319.5 601.5 319.5Q614.5 323.5 620.0 337.5Q625.5 351.5 625.5 364.5Q625.5 372.5 624.5 380.5L621.5 409.5H756.5Q779.5 409.5 798.5 409.5Q870.5 409.5 895.5 415.5Q920.5 421.5 920.5 443.5Q920.5 445.5 920.5 447.5Q920.5 465.5 909.5 476.5Q898.5 487.5 882.5 487.5Q879.5 487.5 877.5 487.5Q863.5 487.5 854.0 498.0Q844.5 508.5 828.5 548.5Q808.5 598.5 786.0 643.5Q763.5 688.5 752.5 703.5Q747.5 706.5 747.5 711.5Q747.5 713.5 750.0 719.0Q752.5 724.5 774.5 746.5Q788.5 760.5 812.0 779.5Q835.5 798.5 858.5 814.5Q905.5 845.5 912.0 857.5Q918.5 869.5 918.5 875.5Q918.5 887.5 905.5 899.5Q900.5 904.5 893.0 909.0Q885.5 913.5 882.5 913.5Q869.5 911.5 827.5 884.0Q785.5 856.5 741.5 820.5L696.5 784.5L684.5 798.5Q633.5 863.5 599.5 888.0Q565.5 912.5 537.5 912.5Q531.5 912.5 525.5 911.5Q504.5 906.5 498.5 892.5Q495.5 882.5 495.5 874.5Q495.5 866.5 501.0 857.0Q506.5 847.5 529.5 839.5Q552.5 829.5 581.5 801.5Q610.5 773.5 624.5 744.5Q630.5 736.5 630.5 728.5Q630.5 725.5 628.5 719.0Q626.5 712.5 612.5 679.5Q603.5 659.5 594.5 637.0Q585.5 614.5 583.5 598.5Q579.5 584.5 576.0 573.5Q572.5 562.5 570.5 562.5Q570.5 562.5 569.5 562.5Q568.5 562.5 561.5 571.5Q554.5 580.5 547.5 596.5Q536.5 618.5 528.5 628.5Q520.5 638.5 511.5 640.5Q504.5 642.5 499.5 642.5Q479.5 642.5 477.0 630.0Q474.5 617.5 474.5 611.5Q474.5 586.5 491.5 544.5ZM97.5 557.5Q97.5 548.5 119.0 524.0Q140.5 499.5 187.5 458.5Q203.5 443.5 222.5 423.0Q241.5 402.5 254.5 386.5Q268.5 371.5 281.0 359.0Q293.5 346.5 300.5 344.5Q313.5 338.5 323.5 338.5Q324.5 338.5 330.5 339.0Q336.5 339.5 345.5 348.5Q354.5 355.5 354.5 362.0Q354.5 368.5 344.5 384.5Q313.5 420.5 308.5 453.5Q303.5 486.5 303.5 594.5Q303.5 633.5 304.5 683.5Q304.5 832.5 302.5 880.5Q300.5 928.5 293.5 929.5Q283.5 939.5 272.5 939.5Q271.5 939.5 264.5 939.0Q257.5 938.5 245.5 928.5Q236.5 924.5 234.5 889.5Q232.5 854.5 232.5 724.5Q232.5 643.5 230.5 588.5Q228.5 533.5 227.5 530.5Q227.5 530.5 226.5 530.5Q223.5 530.5 212.5 538.5Q201.5 546.5 187.5 560.5Q167.5 580.5 156.0 588.5Q144.5 596.5 133.5 596.5Q120.5 596.5 109.0 584.0Q97.5 571.5 97.5 557.5ZM146.5 195.5Q151.5 177.5 158.0 157.5Q164.5 137.5 167.5 125.5Q171.5 114.5 176.0 104.5Q180.5 94.5 185.5 92.5Q198.5 84.5 210.5 84.5Q219.5 84.5 232.5 93.0Q245.5 101.5 245.5 130.5V154.5L367.5 152.5Q430.5 152.5 464.5 153.5Q498.5 154.5 506.5 159.5Q520.5 166.5 521.5 176.0Q522.5 185.5 522.5 187.5Q522.5 202.5 511.5 215.5Q502.5 224.5 496.5 225.5Q490.5 226.5 486.5 226.5Q477.5 226.5 464.5 224.5Q452.5 222.5 443.5 222.5Q434.5 222.5 434.5 224.5Q434.5 226.5 438.0 237.0Q441.5 247.5 448.5 262.5Q458.5 284.5 458.5 300.5Q458.5 305.5 455.5 316.0Q452.5 326.5 434.5 326.5Q432.5 326.5 430.5 326.5Q414.5 326.5 402.0 312.5Q389.5 298.5 367.5 260.5L345.5 224.5H218.5L203.5 265.5Q196.5 283.5 190.0 298.0Q183.5 312.5 180.5 316.5Q172.5 324.5 159.5 324.5Q158.5 324.5 150.5 324.0Q142.5 323.5 131.5 312.5Q123.5 303.5 123.5 284.5Q123.5 253.5 146.5 195.5ZM563.5 154.5Q572.5 121.5 578.0 109.0Q583.5 96.5 592.5 96.5Q597.5 94.5 603.0 93.5Q608.5 92.5 610.5 92.5Q611.5 92.5 611.5 92.5Q619.5 92.5 626.5 105.5Q633.5 118.5 633.5 130.5Q632.5 134.5 632.5 138.5Q632.5 144.5 637.5 147.5Q642.5 150.5 669.5 150.5Q687.5 152.5 727.5 153.5Q767.5 154.5 810.5 155.5Q855.5 155.5 884.0 158.5Q912.5 161.5 918.5 164.5Q926.5 171.5 926.5 183.5Q926.5 184.5 926.0 192.0Q925.5 199.5 916.5 213.5Q911.5 222.5 900.5 225.0Q889.5 227.5 860.5 227.5Q842.5 227.5 829.5 228.5L815.5 229.5Q815.5 231.5 818.5 238.5Q821.5 245.5 826.5 256.5Q831.5 270.5 831.5 280.5Q831.5 287.5 827.5 295.5Q823.5 303.5 807.5 303.5Q804.5 303.5 801.5 303.5Q788.5 303.5 780.5 295.5Q772.5 287.5 758.5 263.5L736.5 227.5H628.5L621.5 254.5Q614.5 278.5 600.5 288.0Q586.5 297.5 574.5 297.5Q571.5 297.5 567.5 296.5Q545.5 292.5 545.0 275.5Q544.5 258.5 544.5 256.5Q544.5 224.5 563.5 154.5ZM389.5 523.5Q390.5 508.5 395.0 498.0Q399.5 487.5 405.5 481.5Q416.5 473.5 426.5 473.5Q427.5 473.5 433.5 474.0Q439.5 474.5 450.5 485.5Q457.5 490.5 458.0 498.5Q458.5 506.5 458.5 510.5Q458.5 524.5 455.5 553.5Q454.5 571.5 454.5 595.5Q454.5 607.5 455.0 634.5Q455.5 661.5 459.5 699.5Q462.5 735.5 463.0 755.0Q463.5 774.5 463.5 781.5Q463.5 795.5 462.5 798.5Q456.5 810.5 442.5 810.5Q440.5 810.5 430.0 809.0Q419.5 807.5 408.5 791.5Q396.5 755.5 391.0 689.5Q385.5 623.5 385.5 588.5Q385.5 551.5 389.5 523.5ZM621.5 488.5Q624.5 508.5 652.5 577.0Q680.5 645.5 689.5 654.5Q698.5 647.5 729.0 581.5Q759.5 515.5 763.5 494.5Q763.5 490.5 746.5 489.0Q729.5 487.5 693.5 487.5H643.5Q623.5 487.5 621.5 488.5Z" fill="black"></path></svg>